<?xml version="1.0" encoding="UTF-8"?>
<svg version="1.1" viewBox="0 0 107 22" xmlns="http://www.w3.org/2000/svg">
<title>F598AEA9-571B-4BDB-8FEC-38F074CC2EC6</title>
<desc>Created with sketchtool.</desc>
<g fill="none" fill-rule="evenodd">
<g transform="translate(-60 -12)" fill="#7AB72B">
<g transform="translate(60 12)">
<polygon points="86.955 1.7726 94.35 10.34 86.955 18.909 89.006 20.679 97.93 10.34 89.006 9.109e-4"/>
<polygon points="95.949 1.7726 103.34 10.34 95.949 18.909 98 20.679 106.92 10.34 98 9.109e-4"/>
<path d="m9.2457 18.27c0 0.18311-0.0091372 0.33658-0.027411 0.46007-0.018601 0.12381-0.048296 0.22906-0.089413 0.31605-0.041443 0.087321-0.091698 0.15118-0.15142 0.19224-0.059718 0.04138-0.13053 0.061907-0.21309 0.061907h-7.8694c-0.21113 0-0.41052-0.070704-0.59848-0.21276-0.18829-0.14206-0.28227-0.39164-0.28227-0.74875v-16.456c0-0.073311 0.018274-0.1375 0.055149-0.19224 0.036549-0.055065 0.10083-0.098399 0.19253-0.13066 0.091698-0.031931 0.21538-0.0593 0.37136-0.082434 0.15598-0.022482 0.34395-0.034212 0.56422-0.034212 0.22908 0 0.41933 0.01173 0.57074 0.034212 0.15142 0.023134 0.27281 0.050503 0.36483 0.082434 0.091371 0.032257 0.15598 0.075592 0.19253 0.13066 0.036549 0.055065 0.055149 0.11893 0.055149 0.19224v15.371h6.3836c0.082561 0 0.15337 0.020527 0.21309 0.061907 0.059391 0.04138 0.10997 0.10068 0.15142 0.17823 0.041443 0.077872 0.071139 0.18083 0.089413 0.30921 0.018274 0.12838 0.027411 0.28379 0.027411 0.46691z"/>
<path d="m14.226 18.943c0 0.073637-0.018601 0.1375-0.055149 0.19224-0.036875 0.055065-0.10116 0.0984-0.19253 0.13066-0.092024 0.032257-0.21309 0.0593-0.36483 0.082434-0.15142 0.022482-0.34166 0.034212-0.57074 0.034212-0.22027 0-0.40856-0.01173-0.56422-0.034212-0.15598-0.023134-0.27966-0.050503-0.37136-0.082434-0.091698-0.032257-0.15598-0.075592-0.19253-0.13066-0.036875-0.055064-0.055149-0.1186-0.055149-0.19224v-17.061c0-0.073311 0.020559-0.1375 0.062002-0.19224 0.041444-0.055065 0.10997-0.098399 0.20624-0.13066 0.096266-0.031931 0.22027-0.0593 0.37136-0.082434 0.15142-0.022482 0.3322-0.034212 0.54366-0.034212 0.22908 0 0.41933 0.01173 0.57074 0.034212 0.15142 0.023134 0.27281 0.050503 0.36483 0.082434 0.091371 0.032257 0.15598 0.075592 0.19253 0.13066 0.036549 0.055065 0.055149 0.11893 0.055149 0.19224v17.061z"/>
<path d="m36.059 20.866c0 0.21048-0.011421 0.38676-0.034264 0.52849-0.023169 0.14206-0.057433 0.25186-0.10312 0.32974-0.046012 0.077546-0.096266 0.13066-0.15142 0.15803-0.055149 0.027369-0.1103 0.04138-0.16512 0.04138-0.1834 0-0.47937-0.075592-0.88728-0.22645-0.40791-0.15086-0.87814-0.37112-1.4101-0.65915-0.53191-0.28868-1.1007-0.63894-1.706-1.0511-0.60534-0.41217-1.1924-0.89276-1.7609-1.4424-0.44935 0.27467-1.0181 0.51285-1.706 0.71421-0.6879 0.20136-1.4858 0.30237-2.3939 0.30237-1.3392 0-2.497-0.19712-3.4737-0.59072s-1.784-0.97064-2.4213-1.7308c-0.63764-0.76015-1.1121-1.7054-1.4241-2.8363-0.31197-1.1309-0.46763-2.429-0.46763-3.8943 0-1.4102 0.16969-2.6855 0.50907-3.8255 0.33938-1.1401 0.84845-2.1107 1.5272-2.9122 0.67876-0.80121 1.5272-1.4193 2.545-1.8543 1.0181-0.43498 2.2056-0.65263 3.5632-0.65263 1.2746 0 2.3962 0.19712 3.3638 0.59072 0.96756 0.39392 1.7791 0.96868 2.435 1.7239 0.65559 0.75559 1.1487 1.6875 1.4789 2.7953 0.33024 1.1081 0.49536 2.3811 0.49536 3.8187 0 0.74191-0.043728 1.4516-0.13086 2.1293-0.087129 0.67804-0.22484 1.3189-0.41248 1.9233-0.18829 0.60441-0.42455 1.1629-0.70845 1.6757-0.28456 0.51318-0.61937 0.9752-1.0044 1.3874 0.6693 0.54934 1.2564 0.9778 1.7609 1.2844 0.50417 0.30693 0.92187 0.53826 1.2518 0.69368 0.33024 0.15574 0.58673 0.26783 0.77046 0.33625 0.18307 0.068749 0.32078 0.14662 0.4128 0.23362 0.091371 0.08667 0.15598 0.21048 0.19253 0.37079 0.036549 0.15998 0.055149 0.37307 0.055149 0.63862zm-4.6776-10.508c0-1.0075-0.089413-1.9413-0.26824-2.8024-0.17883-0.86083-0.47709-1.6093-0.89446-2.2459-0.41737-0.63634-0.97474-1.1332-1.6714-1.4903-0.69703-0.35711-1.5592-0.53566-2.5865-0.53566s-1.8894 0.18996-2.5865 0.5702c-0.69703 0.38024-1.2635 0.89276-1.6992 1.5385-0.43565 0.64546-0.74761 1.3942-0.93558 2.2459-0.18796 0.85171-0.28227 1.7536-0.28227 2.7063 0 1.0439 0.087129 2.0032 0.26139 2.8777 0.17426 0.87452 0.46763 1.6327 0.88043 2.2736 0.4128 0.64123 0.96527 1.1381 1.6577 1.4903 0.69246 0.35254 1.5615 0.52882 2.607 0.52882 1.0364 0 1.9077-0.19224 2.6139-0.57671 0.70617-0.38447 1.2746-0.90417 1.706-1.5591 0.43108-0.65458 0.73815-1.4151 0.92187-2.2801 0.18405-0.86605 0.27575-1.7797 0.27575-2.7412z"/>
<path d="m48.854 6.7318c0 0.88853-0.14685 1.6897-0.44021 2.4039-0.29369 0.71454-0.71302 1.3235-1.2586 1.8269-0.54562 0.50373-1.2156 0.89276-2.0089 1.1674-0.7933 0.27467-1.7403 0.41217-2.8407 0.41217h-2.0226v6.4012c0 0.073637-0.020558 0.1375-0.062002 0.19224-0.041444 0.055065-0.1054 0.0984-0.19253 0.13066-0.087129 0.032257-0.20624 0.0593-0.35765 0.082434-0.15142 0.022482-0.34166 0.034212-0.57074 0.034212-0.22941 0-0.41966-0.01173-0.57107-0.034212-0.15142-0.023134-0.27314-0.050503-0.36483-0.082434-0.091698-0.032257-0.15598-0.075592-0.19253-0.13066-0.036875-0.055064-0.055149-0.1186-0.055149-0.19224v-16.401c0-0.36623 0.096266-0.62721 0.2888-0.78296 0.19253-0.15574 0.40791-0.23362 0.64678-0.23362h3.8108c0.38539 0 0.75447 0.015965 1.1076 0.048222s0.77013 0.10068 1.2518 0.20592c0.48133 0.10557 0.97213 0.30237 1.4721 0.59072 0.49961 0.28836 0.92383 0.64351 1.2727 1.0645 0.34852 0.42129 0.61676 0.90905 0.80472 1.463 0.18796 0.55456 0.28227 1.1658 0.28227 1.8341zm-2.4902 0.19224c0-0.72333-0.13543-1.3277-0.40595-1.8135-0.27052-0.48515-0.60534-0.84682-1.0044-1.085-0.39877-0.23818-0.81157-0.38904-1.2381-0.45322-0.42651-0.063862-0.8416-0.096119-1.2453-0.096119h-2.1874v7.1291h2.1325c0.71563 0 1.3092-0.091231 1.7817-0.27467 0.47219-0.18279 0.86901-0.43693 1.1901-0.76243 0.32111-0.32485 0.56389-0.71421 0.72934-1.1674 0.16479-0.45322 0.24736-0.94555 0.24736-1.4766z"/>
<path d="m65.803 18.463c0.073097 0.20169 0.11226 0.36395 0.11682 0.48776 0.0042422 0.12381-0.030022 0.21765-0.10312 0.28184-0.073423 0.063862-0.19482 0.10492-0.36451 0.12349-0.17002 0.018246-0.39681 0.027695-0.68104 0.027695-0.28423 0-0.51135-0.0068424-0.68104-0.020527-0.16969-0.013685-0.29826-0.036818-0.38506-0.068749-0.087456-0.031931-0.15142-0.075592-0.19253-0.13033-0.041443-0.055064-0.080276-0.12381-0.11682-0.20592l-1.5272-4.327h-7.4017l-1.4584 4.2719c-0.027738 0.082434-0.064286 0.15379-0.1103 0.21276-0.046012 0.059626-0.11226 0.11013-0.19939 0.15118-0.087129 0.041054-0.21113 0.070704-0.37136 0.089276-0.16055 0.018246-0.3694 0.027695-0.62589 0.027695-0.26596 0-0.48394-0.01173-0.65331-0.034212-0.16969-0.023134-0.2888-0.066468-0.35765-0.13066-0.068528-0.063862-0.10116-0.15803-0.096266-0.28151 0.0045685-0.12381 0.043401-0.2864 0.11682-0.48776l5.9708-16.511c0.036549-0.10068 0.084845-0.18311 0.14424-0.2473 0.059391-0.064188 0.14685-0.11469 0.26139-0.15118s0.26139-0.061907 0.44021-0.075592c0.1785-0.013685 0.40595-0.020527 0.68104-0.020527 0.29337 0 0.53648 0.0068423 0.72934 0.020527 0.19253 0.013685 0.34852 0.039099 0.46763 0.075592 0.11911 0.036818 0.21081 0.089276 0.27509 0.15803 0.06396 0.068749 0.11454 0.15346 0.15142 0.25414l5.9708 16.511zm-7.6631-14.575h-0.013706l-3.0678 8.8599h6.1907l-3.1092-8.8599z"/>
<path d="m74.442 12.391v6.552c0 0.073637-0.018274 0.1375-0.054823 0.19224-0.036549 0.055065-0.10051 0.098399-0.19155 0.13066-0.091045 0.032257-0.2144 0.0593-0.3694 0.082434-0.155 0.022482-0.34199 0.034212-0.56063 0.034212-0.2281 0-0.41705-0.01173-0.56781-0.034212-0.15044-0.023134-0.27379-0.050503-0.3694-0.082434-0.09594-0.032257-0.16186-0.075592-0.19841-0.13066-0.036548-0.055065-0.054496-0.1186-0.054496-0.19224v-6.552l-5.0352-10.028c-0.10116-0.21048-0.16316-0.37535-0.18568-0.4946-0.023169-0.11893 0-0.21048 0.068855-0.27467 0.068529-0.063862 0.19253-0.10492 0.37136-0.12349 0.17883-0.018246 0.41933-0.027695 0.72216-0.027695 0.27509 0 0.49732 0.009449 0.66734 0.027695 0.16969 0.018572 0.30479 0.043661 0.40595 0.075592 0.10083 0.032257 0.17654 0.077872 0.2268 0.1375 0.050581 0.059626 0.098551 0.13522 0.14456 0.22645l2.4625 5.1099c0.22843 0.48548 0.45686 0.99377 0.68463 1.5249 0.22778 0.5311 0.46045 1.0668 0.69769 1.607h0.027411c0.2095-0.52197 0.42586-1.0413 0.64972-1.5591 0.22321-0.51709 0.44935-1.0277 0.67843-1.5314l2.4762-5.1373c0.027737-0.091557 0.06657-0.16943 0.11715-0.23362 0.050254-0.063862 0.11878-0.11208 0.20624-0.14434 0.087129-0.031931 0.20852-0.05702 0.36451-0.075592 0.15598-0.018246 0.35308-0.027695 0.59163-0.027695 0.33024 0 0.58935 0.01173 0.77731 0.034212 0.18796 0.023134 0.31849 0.066468 0.39224 0.13066 0.07375 0.064188 0.09855 0.15574 0.075708 0.27467-0.022843 0.11925-0.084845 0.27923-0.18568 0.48059l-5.0352 10.028z"/>
</g>
</g>
</g>
</svg>
